<svg width="96" height="113" viewBox="0 0 96 113" fill="none" xmlns="http://www.w3.org/2000/svg">
<path d="M44.0521 107.297C46.7853 110.028 51.2147 110.028 53.9479 107.297L66.8027 94.4516C71.2149 90.0426 68.0923 82.5 61.8547 82.5L36.1452 82.5C29.9077 82.5 26.7851 90.0426 31.1973 94.4516L44.0521 107.297Z" fill="white" stroke="#B3B3B3" stroke-width="6"/>
<rect x="9.5" y="9.5" width="77" height="77" rx="13.5" stroke="white" stroke-width="17"/>
<rect x="3.5" y="3.5" width="89" height="89" rx="9.5" stroke="#B3B3B3" stroke-width="7"/>
<path d="M50.4137 106.587C49.6328 107.368 48.3672 107.368 47.5863 106.587L29.9006 88.9147C28.64 87.655 29.5321 85.5 31.3143 85.5H66.6857C68.4679 85.5 69.36 87.655 68.0994 88.9147L50.4137 106.587Z" fill="#FFFCFC"/>
</svg>
